<?xml version="1.0" standalone="no"?><!DOCTYPE svg PUBLIC "-//W3C//DTD SVG 1.1//EN" "http://www.w3.org/Graphics/SVG/1.1/DTD/svg11.dtd"><svg t="1575601908110" class="icon" viewBox="0 0 1024 1024" version="1.1" xmlns="http://www.w3.org/2000/svg" p-id="725" xmlns:xlink="http://www.w3.org/1999/xlink" width="200" height="200"><defs><style type="text/css"></style></defs><path d="M512 142.159744c-204.336852 0-369.840256 165.503405-369.840256 369.840256s165.503405 369.840256 369.840256 369.840256 369.840256-165.503405 369.840256-369.840256S716.336852 142.159744 512 142.159744zM512 807.872614c-163.099658 0-295.872614-132.772956-295.872614-295.872614S348.900342 216.127386 512 216.127386s295.872614 132.772956 295.872614 295.872614S675.099658 807.872614 512 807.872614zM440.990736 470.022956c2.034333-12.019755 5.732561-22.745027 11.095709-32.175817s12.759605-17.012466 21.820981-22.745027c8.69094-5.363148 19.60143-8.321526 33.100886-8.506744 8.876158 0.185218 17.012466 1.663896 24.039509 4.807493 7.581676 3.328815 13.868869 7.766894 19.232017 13.314237 5.363148 5.547343 9.43079 12.204973 12.389168 19.60143 2.958378 7.396457 4.623297 15.34857 4.992711 23.670096l66.201771 0c-0.554632-17.382902-4.068665-33.286104-10.17064-47.709605s-14.978133-26.813692-26.073842-37.353746c-11.095709-10.540054-24.409946-18.492166-39.942711-24.224728s-32.730449-8.69094-51.593052-8.69094c-24.039509 0-44.935422 4.068665-62.687738 12.389168-17.752316 8.321526-32.546254 19.60143-44.38079 34.024931s-20.710694 31.066553-26.443255 50.113351c-5.732561 19.046798-8.506744 39.20286-8.506744 60.46921l0 10.17064c0 21.450545 2.958378 41.606607 8.69094 60.653405 5.732561 19.046798 14.608719 35.68985 26.443255 49.928133 11.834536 14.239306 26.628474 25.51921 44.566008 33.840736s38.833447 12.389168 62.872956 12.389168c17.382902 0 33.655518-2.774183 48.818869-8.506744s28.477588-13.499455 39.942711-23.484877c11.465123-9.985422 20.710694-21.450545 27.368324-34.764781 6.656607-13.314237 10.540054-27.368324 11.095709-42.531676l-66.201771 0c-0.369414 7.766894-2.219551 14.793938-5.547343 21.450545-3.328815 6.656607-7.766894 12.204973-13.314237 16.827247s-12.019755 8.321526-19.416212 10.910491c-7.027044 2.403746-14.423501 3.698229-22.375613 3.698229-13.314237-0.369414-24.224728-3.143597-33.100886-8.69094-9.245572-5.91778-16.643052-13.499455-22.005176-22.930245-5.363148-9.43079-9.061376-20.156062-11.094686-32.361035-2.034333-12.204973-2.774183-24.039509-2.774183-36.429701l0-10.17064C438.031335 494.432902 438.956404 482.042711 440.990736 470.022956z" p-id="726"></path></svg>